<svg width="35" height="35" viewBox="0 0 35 35" fill="none" xmlns="http://www.w3.org/2000/svg">
<path d="M19.5199 0.11474C19.9828 0.310115 20.3069 0.726933 20.39 1.21126L20.411 1.45833V33.5416C20.411 34.129 20.0586 34.6593 19.517 34.8865C19.0528 35.0813 18.5272 35.0208 18.1227 34.7404L17.9314 34.582L9.39829 26.1966H4.37381C2.10033 26.1966 0.231964 24.4614 0.0200224 22.243L0 21.8217V13.1038C0 10.8297 1.73464 8.96081 3.95258 8.74881L4.37381 8.72879H9.40191L17.9358 0.413728C18.3557 0.00457799 18.9798 -0.113197 19.5199 0.11474V0.11474ZM28.394 3.08927L28.6463 3.26077L28.9315 3.50743C29.1149 3.67231 29.368 3.91116 29.6677 4.22245C30.2664 4.84426 31.0554 5.7605 31.8427 6.95995C33.4184 9.36068 35 12.9189 35 17.5118C35 22.1049 33.4181 25.6579 31.8415 28.0533C31.0539 29.2501 30.2646 30.1636 29.6657 30.7833L29.2538 31.1944L28.7093 31.6872L28.6131 31.7663C27.9818 32.2665 27.0627 32.1618 26.5626 31.5306C26.1192 30.9706 26.1528 30.1854 26.6067 29.6662L26.9834 29.3235C27.1193 29.2019 27.3219 29.012 27.5692 28.7563C28.0646 28.2435 28.7344 27.4703 29.4062 26.4498C30.7478 24.4107 32.0841 21.4069 32.0841 17.5118C32.0841 13.6164 30.7478 10.6062 29.405 8.56067C28.8452 7.70759 28.2865 7.02626 27.8289 6.52478L27.3355 6.01065L26.7979 5.51652C26.169 5.01468 26.0637 4.09648 26.565 3.46669C27.0108 2.90661 27.7849 2.76213 28.394 3.08927V3.08927ZM25.4803 8.92231L25.7707 9.12571L26.1604 9.49244L26.318 9.65763C26.6489 10.0147 27.0758 10.5378 27.4986 11.2333C28.3486 12.632 29.1712 14.7128 29.1712 17.4957C29.1712 20.2786 28.3486 22.3617 27.4992 23.7623C27.077 24.4588 26.6501 24.9833 26.3194 25.3411L26.0233 25.6452L25.8184 25.8349L25.7024 25.9332L25.5173 26.0173C25.1313 26.1719 24.2286 26.424 23.6535 25.7043C23.2089 25.1479 23.2376 24.3659 23.6853 23.8446L24.0773 23.4677L24.1777 23.3619C24.395 23.1269 24.6985 22.7572 25.0061 22.2497C25.6173 21.2421 26.2553 19.6761 26.2553 17.4957C26.2553 15.3156 25.6173 13.7527 25.007 12.7484C24.7763 12.369 24.548 12.067 24.3569 11.8411L24.0792 11.5353L23.8794 11.3457C23.2534 10.8463 23.1504 9.93042 23.6514 9.30048C24.097 8.74022 24.8711 8.59542 25.4803 8.92231V8.92231Z" fill="#8BC34A"/>
</svg>
