<svg width="483" height="188" viewBox="0 0 483 188" fill="none" xmlns="http://www.w3.org/2000/svg">
<rect width="356" height="57" rx="28.5" fill="#94C178"/>
<rect x="119.193" y="130.622" width="356" height="57" rx="28.5" transform="rotate(-5 119.193 130.622)" fill="#94C178"/>
<rect x="153.35" y="97.9358" width="200" height="57" rx="28.5" transform="rotate(-24 153.35 97.9358)" fill="#94C178"/>
<path d="M334.5 29L334.514 26.5001L334.5 29ZM170.5 148.5L170.825 146.022L170.5 148.5ZM17.6397 31.4848C19.0204 31.4827 20.1381 30.3618 20.136 28.9811C20.134 27.6004 19.0131 26.4827 17.6324 26.4848L17.6397 31.4848ZM38.0962 26.4561C36.7155 26.4579 35.5977 27.5787 35.5995 28.9594C35.6014 30.3401 36.7222 31.4579 38.1029 31.4561L38.0962 26.4561ZM58.5724 31.4298C59.9532 31.4282 61.0711 30.3075 61.0694 28.9268C61.0677 27.5461 59.947 26.4282 58.5663 26.4298L58.5724 31.4298ZM79.0147 26.406C77.634 26.4075 76.5159 27.5281 76.5175 28.9088C76.519 30.2895 77.6395 31.4075 79.0202 31.406L79.0147 26.406ZM99.4162 31.3846C100.797 31.3832 101.915 30.2628 101.914 28.8821C101.912 27.5014 100.792 26.3832 99.4113 26.3846L99.4162 31.3846ZM119.871 26.3656C118.49 26.3668 117.372 27.4871 117.373 28.8678C117.374 30.2485 118.495 31.3668 119.875 31.3656L119.871 26.3656ZM140.325 31.3494C141.706 31.3484 142.825 30.2283 142.824 28.8476C142.823 27.4669 141.702 26.3484 140.322 26.3494L140.325 31.3494ZM160.769 26.3362C159.388 26.3369 158.27 27.4569 158.27 28.8376C158.271 30.2183 159.391 31.3369 160.772 31.3362L160.769 26.3362ZM181.219 31.3263C182.599 31.3258 183.718 30.2061 183.718 28.8254C183.717 27.4447 182.597 26.3258 181.217 26.3263L181.219 31.3263ZM201.668 26.3205C200.287 26.3207 199.168 27.4402 199.168 28.8209C199.169 30.2016 200.288 31.3207 201.669 31.3205L201.668 26.3205ZM222.115 31.3193C223.496 31.3194 224.615 30.2002 224.615 28.8195C224.616 27.4388 223.496 26.3194 222.116 26.3193L222.115 31.3193ZM242.569 26.3238C241.188 26.3233 240.068 27.4422 240.068 28.8229C240.067 30.2036 241.186 31.3233 242.567 31.3238L242.569 26.3238ZM262.993 31.3356C264.374 31.3367 265.494 30.2183 265.495 28.8376C265.496 27.4569 264.378 26.3367 262.997 26.3357L262.993 31.3356ZM283.484 26.3573C282.104 26.3555 280.983 27.4732 280.981 28.8539C280.979 30.2346 282.097 31.3555 283.477 31.3573L283.484 26.3573ZM303.934 31.3933C305.315 31.3964 306.436 30.2796 306.439 28.8989C306.443 27.5182 305.326 26.3964 303.945 26.3934L303.934 31.3933ZM324.393 26.4536C323.012 26.4483 321.888 27.5632 321.883 28.9439C321.878 30.3246 322.993 31.4482 324.373 31.4536L324.393 26.4536ZM343.915 32.5971C345.199 33.1048 346.652 32.4755 347.159 31.1915C347.667 29.9075 347.038 28.4551 345.754 27.9474L343.915 32.5971ZM336.35 46.307C337.523 45.5785 337.884 44.0372 337.155 42.8642C336.427 41.6913 334.885 41.331 333.712 42.0595L336.35 46.307ZM315.567 52.1465C314.341 52.78 313.86 54.288 314.493 55.5148C315.127 56.7416 316.635 57.2226 317.861 56.5891L315.567 52.1465ZM299.127 65.9111C300.37 65.3098 300.89 63.8148 300.289 62.5719C299.687 61.329 298.192 60.8089 296.949 61.4103L299.127 65.9111ZM278.153 70.3636C276.904 70.9519 276.368 72.4414 276.956 73.6905C277.545 74.9396 279.034 75.4753 280.283 74.8871L278.153 70.3636ZM261.367 83.7554C262.618 83.1701 263.157 81.6818 262.572 80.4313C261.986 79.1808 260.498 78.6416 259.248 79.227L261.367 83.7554ZM240.355 88.1044C239.107 88.6947 238.574 90.1851 239.164 91.4333C239.754 92.6814 241.245 93.2147 242.493 92.6243L240.355 88.1044ZM223.674 101.636C224.916 101.032 225.433 99.5358 224.829 98.2942C224.225 97.0526 222.729 96.5356 221.487 97.1396L223.674 101.636ZM202.738 106.483C201.509 107.114 201.025 108.62 201.655 109.849C202.286 111.077 203.792 111.562 205.021 110.931L202.738 106.483ZM186.718 120.769C187.918 120.085 188.336 118.558 187.653 117.359C186.969 116.159 185.443 115.741 184.243 116.424L186.718 120.769ZM166.487 127.709C165.38 128.534 165.152 130.1 165.977 131.207C166.803 132.314 168.369 132.543 169.476 131.717L166.487 127.709ZM161.808 143.513C160.643 142.772 159.098 143.116 158.357 144.281C157.616 145.446 157.96 146.991 159.125 147.732L161.808 143.513ZM179.984 151.816C181.363 151.887 182.539 150.827 182.609 149.448C182.68 148.069 181.62 146.894 180.241 146.823L179.984 151.816ZM199.732 147.11C198.351 147.126 197.245 148.258 197.26 149.639C197.276 151.019 198.408 152.126 199.789 152.11L199.732 147.11ZM219.393 151.575C220.772 151.519 221.846 150.356 221.79 148.976C221.734 147.596 220.571 146.523 219.191 146.579L219.393 151.575ZM238.644 145.613C237.266 145.692 236.213 146.874 236.293 148.253C236.373 149.631 237.555 150.684 238.933 150.604L238.644 145.613ZM258.503 149.347C259.88 149.251 260.918 148.056 260.822 146.679C260.726 145.301 259.531 144.263 258.154 144.359L258.503 149.347ZM277.634 142.903C276.257 143.012 275.23 144.216 275.339 145.593C275.448 146.969 276.652 147.996 278.028 147.888L277.634 142.903ZM297.544 146.27C298.919 146.152 299.938 144.94 299.819 143.565C299.7 142.189 298.489 141.17 297.113 141.289L297.544 146.27ZM316.579 139.549C315.204 139.676 314.193 140.893 314.319 142.268C314.446 143.643 315.664 144.655 317.038 144.528L316.579 139.549ZM336.525 142.68C337.899 142.547 338.904 141.324 338.771 139.95C338.637 138.576 337.415 137.57 336.04 137.704L336.525 142.68ZM355.502 135.768C354.128 135.907 353.128 137.134 353.267 138.508C353.407 139.881 354.633 140.882 356.007 140.742L355.502 135.768ZM375.456 138.728C376.829 138.583 377.824 137.353 377.68 135.98C377.535 134.606 376.304 133.611 374.931 133.756L375.456 138.728ZM394.393 131.669C393.021 131.818 392.029 133.052 392.179 134.425C392.329 135.797 393.562 136.789 394.935 136.639L394.393 131.669ZM414.394 134.487C415.766 134.333 416.754 133.096 416.6 131.724C416.446 130.352 415.209 129.364 413.837 129.518L414.394 134.487ZM433.242 127.31C431.871 127.469 430.887 128.709 431.045 130.08C431.203 131.452 432.443 132.436 433.815 132.277L433.242 127.31ZM453.288 130.001C454.659 129.839 455.639 128.595 455.477 127.224C455.314 125.853 454.071 124.873 452.7 125.036L453.288 130.001ZM472.117 122.701C470.746 122.869 469.771 124.116 469.938 125.486C470.106 126.857 471.353 127.832 472.723 127.665L472.117 122.701ZM7.5 29.0002C7.50403 31.5002 7.50405 31.5002 7.50407 31.5002C7.5041 31.5002 7.50414 31.5002 7.5042 31.5002C7.50431 31.5002 7.50447 31.5002 7.50469 31.5002C7.50514 31.5002 7.5058 31.5002 7.50668 31.5002C7.50845 31.5002 7.51109 31.5002 7.51462 31.5002C7.52168 31.5002 7.53225 31.5002 7.54632 31.5001C7.57446 31.5001 7.61658 31.5 7.6725 31.4999C7.78434 31.4998 7.95138 31.4995 8.17218 31.4991C8.61378 31.4984 9.2704 31.4974 10.1305 31.4961C11.8506 31.4934 14.3846 31.4896 17.6397 31.4848L17.6324 26.4848C14.3771 26.4896 11.843 26.4934 10.1227 26.4961C9.26261 26.4974 8.60593 26.4985 8.16427 26.4992C7.94345 26.4995 7.77638 26.4998 7.66451 26.4999C7.60858 26.5 7.56644 26.5001 7.53829 26.5001C7.52422 26.5002 7.51364 26.5002 7.50658 26.5002C7.50305 26.5002 7.50039 26.5002 7.49862 26.5002C7.49774 26.5002 7.49708 26.5002 7.49663 26.5002C7.49641 26.5002 7.49625 26.5002 7.49613 26.5002C7.49608 26.5002 7.49604 26.5002 7.49601 26.5002C7.49598 26.5002 7.49597 26.5002 7.5 29.0002ZM38.1029 31.4561C44.2105 31.4479 51.0809 31.439 58.5724 31.4298L58.5663 26.4298C51.0746 26.439 44.204 26.4479 38.0962 26.4561L38.1029 31.4561ZM79.0202 31.406C85.5424 31.3988 92.3627 31.3916 99.4162 31.3846L99.4113 26.3846C92.3576 26.3916 85.537 26.3988 79.0147 26.406L79.0202 31.406ZM119.875 31.3656C126.568 31.3599 133.401 31.3544 140.325 31.3494L140.322 26.3494C133.397 26.3544 126.564 26.3599 119.871 26.3656L119.875 31.3656ZM160.772 31.3362C167.559 31.3323 174.389 31.329 181.219 31.3263L181.217 26.3263C174.387 26.329 167.557 26.3323 160.769 26.3362L160.772 31.3362ZM201.669 31.3205C208.542 31.3192 215.372 31.3188 222.115 31.3193L222.116 26.3193C215.372 26.3188 208.542 26.3192 201.668 26.3205L201.669 31.3205ZM242.567 31.3238C249.545 31.3265 256.372 31.3304 262.993 31.3356L262.997 26.3357C256.375 26.3304 249.548 26.3265 242.569 26.3238L242.567 31.3238ZM283.477 31.3573C290.691 31.3671 297.54 31.3791 303.934 31.3933L303.945 26.3934C297.549 26.3791 290.699 26.3672 283.484 26.3573L283.477 31.3573ZM324.373 31.4536C328.029 31.4677 331.41 31.4831 334.486 31.5L334.514 26.5001C331.434 26.4832 328.05 26.4678 324.393 26.4536L324.373 31.4536ZM334.486 31.5C339.36 31.5266 342.34 31.9745 343.915 32.5971L345.754 27.9474C343.256 26.96 339.474 26.5272 334.514 26.5001L334.486 31.5ZM333.712 42.0595C328.859 45.0736 322.695 48.4662 315.567 52.1465L317.861 56.5891C325.04 52.8825 331.336 49.4212 336.35 46.307L333.712 42.0595ZM296.949 61.4103C290.961 64.3077 284.65 67.3036 278.153 70.3636L280.283 74.8871C286.789 71.8233 293.116 68.8193 299.127 65.9111L296.949 61.4103ZM259.248 79.227C252.961 82.1696 246.626 85.1387 240.355 88.1044L242.493 92.6243C248.753 89.6633 255.081 86.6978 261.367 83.7554L259.248 79.227ZM221.487 97.1396C214.985 100.302 208.687 103.429 202.738 106.483L205.021 110.931C210.93 107.898 217.194 104.788 223.674 101.636L221.487 97.1396ZM184.243 116.424C177.242 120.413 171.181 124.209 166.487 127.709L169.476 131.717C173.936 128.392 179.799 124.711 186.718 120.769L184.243 116.424ZM159.125 147.732C161.614 149.315 165.345 150.345 170.175 150.979L170.825 146.022C166.197 145.414 163.354 144.496 161.808 143.513L159.125 147.732ZM170.175 150.979C173.021 151.353 176.311 151.628 179.984 151.816L180.241 146.823C176.655 146.639 173.503 146.373 170.825 146.022L170.175 150.979ZM199.789 152.11C205.838 152.04 212.407 151.856 219.393 151.575L219.191 146.579C212.243 146.859 205.723 147.041 199.732 147.11L199.789 152.11ZM238.933 150.604C245.25 150.239 251.793 149.817 258.503 149.347L258.154 144.359C251.461 144.828 244.939 145.249 238.644 145.613L238.933 150.604ZM278.028 147.888C284.452 147.379 290.972 146.838 297.544 146.27L297.113 141.289C290.552 141.855 284.044 142.396 277.634 142.903L278.028 147.888ZM317.038 144.528C323.54 143.928 330.049 143.31 336.525 142.68L336.04 137.704C329.573 138.333 323.072 138.95 316.579 139.549L317.038 144.528ZM356.007 140.742C362.588 140.074 369.086 139.4 375.456 138.728L374.931 133.756C368.567 134.427 362.075 135.1 355.502 135.768L356.007 140.742ZM394.935 136.639C401.662 135.906 408.17 135.185 414.394 134.487L413.837 129.518C407.617 130.216 401.115 130.936 394.393 131.669L394.935 136.639ZM433.815 132.277C440.94 131.456 447.477 130.69 453.288 130.001L452.7 125.036C446.894 125.724 440.362 126.489 433.242 127.31L433.815 132.277ZM472.723 127.665C475.8 127.289 478.197 126.993 479.825 126.791C480.638 126.69 481.26 126.612 481.678 126.56C481.887 126.534 482.046 126.514 482.152 126.501C482.205 126.494 482.245 126.489 482.272 126.486C482.285 126.484 482.295 126.483 482.302 126.482C482.305 126.481 482.308 126.481 482.31 126.481C482.31 126.481 482.311 126.481 482.312 126.481C482.312 126.481 482.312 126.481 482.312 126.481C482.312 126.481 482.312 126.481 482.312 126.481C482.312 126.481 482.312 126.481 482 124C481.688 121.52 481.688 121.52 481.688 121.52C481.688 121.52 481.688 121.52 481.688 121.52C481.688 121.52 481.687 121.52 481.687 121.52C481.687 121.52 481.686 121.52 481.685 121.52C481.684 121.52 481.681 121.521 481.678 121.521C481.671 121.522 481.662 121.523 481.648 121.525C481.622 121.528 481.582 121.533 481.529 121.54C481.424 121.553 481.266 121.573 481.058 121.599C480.641 121.651 480.021 121.728 479.209 121.829C477.584 122.031 475.191 122.326 472.117 122.701L472.723 127.665Z" fill="#FEFDEE" fill-opacity="0.6"/>
</svg>
