<?xml version="1.0" encoding="UTF-8"?><svg id="Layer_2" xmlns="http://www.w3.org/2000/svg" viewBox="0 0 949.77 185.49"><defs><style>.cls-1{stroke:#000;stroke-miterlimit:10;stroke-width:7px;}</style></defs><g id="Layer_1-2"><g><path class="cls-1" d="M105.81,165.18h-1.72l-.86,1.03v-1.03l-2.75,1.03c-.8,0-1.44-.34-1.89-1.03-8.37,2.98-16.34,4.47-23.91,4.47h-.86c-4.47-11.58-6.94-20.12-7.4-25.63l2.24-1.03,1.03,.86h3.61v-1.89c1.95,.69,3.27,1.03,3.96,1.03l.69-1.03v1.03l2.92-1.03,5.68,1.03,2.75-2.75,.86,1.03c3.78-.57,5.68-1.26,5.68-2.06,5.5-3.33,8.26-10.72,8.26-22.19l-.86-1.03,.86-.86v-1.72l-.86-1.03h.86c-1.72-9.29-4.82-13.93-9.29-13.93l-18.58,5.68v.69l-2.92-.69c-4.24,1.38-6.36,2.58-6.36,3.61-13.65,3.1-20.47,5.22-20.47,6.36l7.05,4.99c2.18-1.38,9.4-3.96,21.67-7.74,.8,0,1.49,.23,2.06,.69l4.64-1.72h.69c2.41-1.03,6.19-2.35,11.35-3.96,.69,2.52,1.32,5.1,1.89,7.74,0,.69,.23,1.32,.69,1.89l-1.72,16,1.03,.69-2.92,1.03c-1.84,0-2.75-.58-2.75-1.72-8.6,1.72-13.53,3.27-14.79,4.64l-2.06-2.06-5.16,1.03-3.1-3.61c-6.19,2.75-9.29,6.08-9.29,9.98v1.89h3.61c1.6,1.72,4.13,11.7,7.57,29.93h-.86c0,3.21,1.2,5.33,3.61,6.36h2.92l.69-1.03v1.03l33.54-7.4v-1.03l-1.03-2.58,1.03,.69-1.03-4.64Z"/><path class="cls-1" d="M123.7,51.66l-1.03-.69-19.44,4.64c-8.94,1.15-13.42,4.42-13.42,9.8h-1.03l-1.03-8.77,1.03-1.03c0-.57-.34-2.81-1.03-6.71v-1.03l1.03-.86-1.03-3.78v-10.84l-.69-.86h.69c-.46-3.9-.69-6.19-.69-6.88l.69-.86c-.8-13.53-2.7-20.3-5.68-20.3h-3.78l-1.03,1.03,2.06,12.38-1.03,3.1,1.03,3.78c-.69,3.78-1.03,6.02-1.03,6.71l1.03,1.03-1.03,13.42,1.03,2.92c-.69,.58-1.03,1.26-1.03,2.06l1.03,1.03-1.03,.69v16.51l2.06,1.89-2.06,3.1c0,1.15,.34,3.73,1.03,7.74l-1.03,2.75,1.03,2.92c-.69,.58-1.03,1.26-1.03,2.06l1.03,.69h-1.03l1.72,4.99-1.03,1.03v2.06h4.64l1.03-1.03,4.99,1.72v-2.92c0-1.95,.06-3.9,.17-5.85v-8.43l-1.03-1.03,1.03-1.03v-1.89l-1.03-1.03h1.03c-.69-4.47-1.03-7.05-1.03-7.74l1.03-1.03,1.03,1.03,27.86-5.85v1.03c2.06-.69,3.38-1.03,3.96-1.03l1.03,1.03c7.68-.69,11.52-2,11.52-3.96,0-3.55-1.26-6.71-3.78-9.46-4.47,1.15-7.05,1.72-7.74,1.72Z"/><path class="cls-1" d="M53.69,85.2c-.46-17.54-1.32-27.86-2.58-30.96l.52-2.75c0-12.04-3.33-18.06-9.98-18.06v1.72h-2.06l-2.58-1.72h-9.8l-4.47,1.2c0-.8-.17-1.55-.52-2.24-9.29,1.84-14.28,2.75-14.96,2.75,.69,1.95,1.03,3.96,1.03,6.02l-1.03,1.2,1.03,1.03,13.24-3.1v.86l2.24-.86c1.72,.58,2.86,.86,3.44,.86l1.03-.86c10.09,.58,16,1.61,17.72,3.1l-2.06,1.89c1.72,9.98,2.58,15.37,2.58,16.17l-.52,1.03c1.6,2.41,2.41,5.33,2.41,8.77v7.05l-6.19,1.03-4.13-1.03-3.61,1.03-.86-1.03-18.58,5.16-1.55-17.03,.52-1.03c-.34-2.64-.52-6.02-.52-10.15l.52-4.82c-.46,0-1.2-2.06-2.24-6.19l-8.08,2.06c1.38,27.18,4.82,42.48,10.32,45.92h1.03c3.67,0,13.3-2.69,28.9-8.08l8.77,2.41,1.03-1.38Z"/><path class="cls-1" d="M199.03,57.34c-2.29,1.26-11.75,3.33-28.38,6.19v-.69c-5.85,1.15-15.14,1.72-27.86,1.72l-.86,.86,1.89,4.82h12.56l.86-.69,4.64,1.72v-1.03l.69-.69h1.03l.86,.69h1.03l.69-.69c0,.69,1.83,1.26,5.5,1.72l.69-2.75,2.92,1.72h2.58l7.91-2.24,3.61,.52c6.88-2.41,10.32-4.3,10.32-5.68v-1.03l-.69-.86,1.72-1.72v-1.89l-1.03-1.03-.69,1.03Z"/><path class="cls-1" d="M162.57,51.49c12.61,0,18.92-.97,18.92-2.92l1.03,1.03c4.82-1.15,7.22-2.92,7.22-5.33l-2.58-1.03c-6.54,2.75-16.86,4.13-30.96,4.13l-7.05-.86v.86l-1.03,1.03v2.06l6.54,1.03h7.91Z"/><path class="cls-1" d="M186.13,82.96c0-.57,.23-1.09,.69-1.55l-6.19-2.06-2.75-.34-7.22,1.89,1.03,.69v1.03l-1.03,.86c-2.98,.69-5.22,2.58-6.71,5.68l-4.64,3.78,.69,.86c-.46,.46-.69,.98-.69,1.55l.69,1.03c-2.75,0-4.53,4.99-5.33,14.96l1.03,.69-1.03,.86c1.83,6.65,6.65,9.98,14.45,9.98,7.22,0,11.7-2.75,13.42-8.26l-1.03-1.72c2.18,0,3.73-1.66,4.64-4.99,1.15-1.15,2.35-3.04,3.61-5.68-.23-3.9-.34-8.71-.34-14.45l-3.27-4.82Zm-2.92,9.29c0,4.24-2.92,10.61-8.77,19.09,0,.58,.28,1.09,.86,1.55,0,2.06-3.27,4.02-9.8,5.85-3.67-1.38-5.5-3.84-5.5-7.4v-3.44c0-3.55,1.83-8.02,5.5-13.42,4.24-3.9,7.74-7.51,10.49-10.84,2.41,.57,3.96,.86,4.64,.86l.86-.86,1.72,3.44v5.16Z"/><path class="cls-1" d="M257.34,44.95v-4.82c0-3.67-1.15-6.54-3.44-8.6l-2.75,2.06,.69,2.92-.69,7.91,.69,1.03c-1.72,6.19-3.33,18.75-4.82,37.67h-.86l-1.03-1.03h-1.72l-.86,1.03-.69-1.03h-2.92l-1.03,1.03v-1.03c-4.47,0-7.28-1.26-8.43-3.78l-5.16,2.06h-1.03l1.72-2.06-1.72-2.06c.69-1.95,1.03-3.27,1.03-3.96l-1.03-1.03,1.03-3.1c-1.38-1.15-2.35-5.79-2.92-13.93l.86-4.82h-1.89c0-.8,.34-1.49,1.03-2.06v-2.92l-1.03-1.03,1.03-1.03-2.06-2.06h-3.27l-2.92,2.06,1.03,11.87v11.18l.86,1.03h-.86l.86,5.85-.86,2.92,1.89,18.06-1.03,3.1,1.03,.69h-1.03l1.03,12.21-1.89,17.72,.86,3.1h5.33l1.03-1.03c.46,.69,1.09,1.03,1.89,1.03l1.03-1.03-1.03-4.82v-13.24l-1.03-1.72,1.03,1.03v-2.06l-1.03-1.03,2.75-2.06-1.72-4.99c.69-.57,1.03-1.26,1.03-2.06l-1.03-1.03h1.03c-.69-3.9-1.03-6.19-1.03-6.88l1.03-1.03-1.03-6.02h1.03c8.94,6.77,15.88,10.15,20.81,10.15,0,12.73-.86,23.05-2.58,30.96h.86l1.03,1.03-1.03,.69c.69,2.06,1.03,3.44,1.03,4.13l5.33-2.06v1.03l1.89-2.06c0-1.15-.34-3.78-1.03-7.91v-.86l1.03-1.03-1.03-3.1,1.72-9.98-.69-2.92c1.83-7.34,3.04-17.31,3.61-29.93,0-.8-.29-1.49-.86-2.06,2.41-6.3,3.61-12.15,3.61-17.54,0-2.29-.23-4.53-.69-6.71Z"/><path class="cls-1" d="M349.53,110.48c-2.87,.92-4.47,2.29-4.82,4.13l-.86-.17-.69-1.38h-1.03l-2.06,1.55c-.8-.11-1.44-.52-1.89-1.2l-1.2-.17c-1.72,0-3.73,.63-6.02,1.89l-.69-.17-.86-1.38-.17,1.03-2.58-1.55-4.64,.86c.11-.69,.97-3.73,2.58-9.12-.58-8.26-1.55-13.64-2.92-16.17h-.69l.52-.34,5.85,1.03c0-.69-.23-1.26-.69-1.72l2.75,.69,8.26-2.75,1.55-2.06-1.03-2.58,1.03-10.32-2.24-10.66h.69l-.52-2.75,2.41-2.41-.86-4.13-1.72-2.06-3.1-20.12h-3.1l-2.58,1.89,1.2,20.12-7.91-.34-10.32,1.55-6.71,1.89c-2.41,.34-4.19,.8-5.33,1.38l-.34-2.41c.69-1.95,1.03-3.27,1.03-3.96l-1.03-.69,2.06-13.24-1.03-3.61h-2.92l-2.24,.86v-.17c-.12,0-1.09,9.06-2.92,27.18,.69,1.95,1.03,3.27,1.03,3.96l-1.03,.69c.8,0,1.49,.34,2.06,1.03,0,.8-.34,1.44-1.03,1.89v1.72l1.03,1.03h-1.03l1.03,2.92-1.03,3.61,2.06,2.06-1.03,2.58c1.03,3.56,1.89,5.96,2.58,7.22,.34,1.84,.86,3.56,1.55,5.16l3.61-.86,1.89-1.72c-.8-4.13-1.44-8.26-1.89-12.38-.23-3.67-.75-9.06-1.55-16.17,1.15-.69,2.86-1.09,5.16-1.2l2.41-1.55,2.58,.52c4.58-.8,8.2-1.89,10.84-3.27l5.33,.69,3.96-.17,1.55,18.75-.52,5.5-6.02,.52-2.58-1.03c-2.3,0-4.59,.23-6.88,.69l-4.47,.34-4.82-1.03-2.06,2.06v.86c0,2.98,1.72,4.82,5.16,5.5,3.44-.69,5.5-1.03,6.19-1.03l.69,1.03c.23-.69,.69-1.26,1.38-1.72,.69,0,1.26,.23,1.72,.69l.17,1.03c-1.61,.34-2.87,1.55-3.78,3.61l.52,9.12-2.58,7.91,.52,3.1-1.2,2.92-22.19,.17-10.66-.69-4.64-1.89h-4.64l-3.78-.69-.17,1.2c0,2.41,1.26,5.33,3.78,8.77l9.29,1.55c3.9-.46,6.19-.69,6.88-.69l.86,1.2c3.9,.34,8.08,.52,12.56,.52,10.43,0,22.3-.86,35.6-2.58,10.32,0,15.65-1.89,16-5.68l.34-1.03-1.38-4.82-1.55-.34Z"/><path class="cls-1" d="M399.58,79.52l-1.03-1.03-8.94,2.06c-8.94,1.03-13.42,4.07-13.42,9.12h-1.03l-1.03-8.26,1.03-.86-1.03-6.36v-.86l1.03-1.03-1.03-3.61v-9.98l-.86-.86h.86c-.57-3.55-.86-5.68-.86-6.36l.86-.86c-.92-12.73-2.81-19.09-5.68-19.09h-3.96l-1.03,1.03,2.06,11.7-1.03,2.75,1.03,3.61c-.69,3.67-1.03,5.74-1.03,6.19l1.03,1.03-1.03,12.73,1.03,2.75-1.03,.86v1.03l1.03,.69-1.03,1.03v15.31l1.89,1.72-1.89,2.92c0,1.15,.34,3.56,1.03,7.22l-1.03,2.75,1.03,2.58-1.03,1.03v.86l1.03,1.03h-1.03l1.89,10.84-.86,.69v1.89h4.64l1.03-.86,2.06,6.19h1.89l1.03-4.3v-4.64l-1.03-5.5,1.03-4.3v-8.26l-1.03-.86,1.03-1.03v-1.72l-1.03-.86h1.03c-.69-4.24-1.03-6.71-1.03-7.4l1.03-.86,1.03,.86,17.54-2.92v1.03c2.06-.69,3.32-1.03,3.78-1.03l1.03,1.03c7.8-.69,11.7-1.89,11.7-3.61,0-3.44-1.32-6.42-3.96-8.94-4.47,1.15-7.05,1.72-7.74,1.72Z"/><path class="cls-1" d="M507.25,112.38c-3.1,.8-4.82,2.24-5.16,4.3l-1.03-.17-.69-1.38h-1.03l-2.41,1.55-1.03-.17-.69-1.03-1.38-.17c-1.95,0-4.07,.63-6.36,1.89l-1.03-.17-.86-1.38-.17,1.03-2.92-1.55-4.82,.86c.11-.69,1.03-3.96,2.75-9.8-.46-8.83-1.49-14.62-3.1-17.37l-1.03-.17c-2.18,0-3.9,1.44-5.16,4.3l.52,9.63-2.58,8.77,.52,3.27-1.55,2.92-17.54,.34c-.12-2.52-.52-5.73-1.2-9.63l-1.55-.34c.8-1.03,1.21-3.1,1.21-6.19l-.17-4.13-2.92-2.06c-3.9,.8-5.85,3.16-5.85,7.05l.17,1.72,1.38,.52-.34,12.9-8.26-.69-4.82-1.89c-3.44,0-6.54-.23-9.29-.69l-.17,1.38c0,2.52,1.32,5.56,3.96,9.12l10.15,1.89c4.24-.57,6.71-.86,7.39-.86l.86,1.38c4.01,.34,8.26,.52,12.73,.52,11.35,0,24.37-.97,39.04-2.92,11.24,0,17.03-1.95,17.37-5.85l.17-1.03-1.2-5.5-1.89-.17Z"/><path class="cls-1" d="M443.1,77.46c6.77,7.57,15.54,11.35,26.32,11.35h1.03c5.85-1.38,9.69-3.5,11.52-6.36l1.03-1.55c.34-2.06,.52-3.38,.52-3.96l.86-1.2v-3.44c.69-1.6,1.6-3.04,2.75-4.3,.57-2.29,.86-4.64,.86-7.05,.57-1.6,.86-3.38,.86-5.33l-.17-2.06-2.58-3.44v-.52l.86-.69-.86-.52c-2.52-3.67-4.47-5.5-5.85-5.5l.69-.69c0-2.64-3.67-4.64-11.01-6.02h-6.02c-11.35,1.03-18.46,5.28-21.33,12.73l.52,1.72,3.1-.17c4.24-6.65,11.06-9.98,20.47-9.98,8.48,0,12.73,5.28,12.73,15.82v1.38l-1.03,.69,1.03,.52-1.03,6.71v8.08c-1.03,0-2.41,2.24-4.13,6.71,0,.58,.29,.98,.86,1.2l-6.71,2.41-8.77-1.89c-6.54-2.18-11.01-6.13-13.42-11.87l-1.55-7.91c.11-2.41,1.55-5.27,4.3-8.6l-1.55-1.55c-5.39,.92-8.08,4.88-8.08,11.87l.34,4.13,3.44,9.29Z"/><path class="cls-1" d="M621.11,81.93c.69-1.15,1.26-2.86,1.72-5.16v-.69l1.03-1.38v-3.61l1.38-3.1,2.06-1.72c.46-2.52,.69-5.04,.69-7.57,.69-1.72,1.03-3.84,1.03-6.36v-1.89l-3.1-3.61v-.52l1.03-.69-1.03-.86c-2.87-3.9-5.16-5.85-6.88-5.85l1.03-.86c0-2.87-4.42-4.99-13.24-6.36h-7.22c-13.53,1.15-21.96,5.68-25.28,13.59l.52,2.06,3.61-.17c4.7-6.54,11.24-9.98,19.61-10.32,1.83-.23,3.5-.34,4.99-.34,9.98,0,14.96,5.68,14.96,17.03v1.38l-1.03,.69,1.03,.86-1.03,7.22v8.77c-1.38,0-3.1,2.47-5.16,7.4v.52l1.03,.86-7.74,2.24-10.84-1.72c-7.8-2.41-13.07-6.71-15.82-12.9l-1.72-8.77c.34-2.64,2.06-5.68,5.16-9.12l-2.06-2.06c-6.31,1.03-9.46,5.45-9.46,13.24,0,1.49,.11,3.04,.34,4.64l4.13,9.8c8.14,8.26,18.4,12.38,30.79,12.38h1.55c6.99-1.38,11.64-3.73,13.93-7.05Z"/><path class="cls-1" d="M694.04,52.35l-1.03-1.03-18.58,4.64c-8.71,1.15-13.07,4.24-13.07,9.29h-1.03l-.86-8.26c.46-.57,.74-1.2,.86-1.89-.58-3.78-.86-6.02-.86-6.71l.86-.69-.86-3.96v-10.32l-1.03-.69h1.03c-.69-3.78-1.03-6.02-1.03-6.71l1.03-.86c-1.03-13.07-2.92-19.61-5.68-19.61h-3.78l-.86,.86,1.89,12.04-1.03,2.92,1.03,3.78c-.69,3.67-1.03,5.85-1.03,6.54l1.03,1.03-1.03,12.9,1.03,2.75c-.69,.58-1.03,1.26-1.03,2.06l1.03,.86-1.03,1.03v15.65l2.06,2.06-2.06,2.58c0,1.38,.34,3.9,1.03,7.57l-1.03,2.75,1.03,2.92-1.03,1.03v.69l1.03,1.03h-1.03l2.06,11.18-1.03,1.03v1.72h4.64l1.03-.69,.52,2.24-9.12,1.89v.69l-2.75-1.03c-4.36,1.03-6.6,2.06-6.71,3.1-13.76,1.95-20.76,3.5-20.98,4.64l6.71,5.5c2.29-1.26,9.69-3.15,22.19-5.68,.8,0,1.49,.23,2.06,.69,8.14-2.06,13.82-3.44,17.03-4.13,.57,2.64,1.03,5.33,1.38,8.08l-.34,1.03,.86,.69-3.1,15.82,.69,.69-2.75,.86c-1.72-.23-2.58-.8-2.58-1.72v-.34c-8.83,1.03-13.93,2.12-15.31,3.27l-1.72-2.06-5.16,.52-2.92-3.78c-6.31,2.18-9.63,5.27-9.98,9.29l-.34,1.72,3.61,.34c1.38,1.83,3.04,11.98,4.99,30.44h-.86v1.2c0,2.52,1.03,4.36,3.1,5.5l2.92,.17,.69-1.03v1.03l34.06-4.3c0-.69-.23-2.01-.69-3.96l1.03,1.03-.86-4.82h-1.72l-.86,.69v-1.03c-1.84,.57-3.1,.86-3.78,.86l-.86-1.03c-6.54,1.6-12.73,2.41-18.58,2.41-2.18,0-4.3-.12-6.36-.34-3.44-11.93-5.16-20.64-5.16-26.14l2.24-.69,1.03,.69,3.61,.52,.34-1.72,2.58,1.2h1.03l.69-1.03v1.03l2.92-.69,5.68,1.55,3.1-2.58,.69,1.03c3.78-.23,5.68-.75,5.68-1.55,5.85-2.75,9.23-9.58,10.15-20.47l.17-1.03-.69-1.03,.69-.69,.34-1.89-.86-1.03h.86c-.92-9.29-3.61-14.1-8.08-14.45l-5.85,1.2v-4.3l-1.03-5.68,1.03-4.64v-8.43l-1.03-.86,1.03-1.03v-1.72l-1.03-1.03h1.03c-.69-4.36-1.03-6.88-1.03-7.57l1.03-.69,.69,.69,27.18-5.33v.69c1.83-.46,3.1-.69,3.78-.69l1.03,.69c7.45-.46,11.18-1.66,11.18-3.61,0-3.55-1.2-6.65-3.61-9.29-4.47,1.26-7,1.89-7.57,1.89Z"/><path class="cls-1" d="M783.48,104.98l1.03-.86v-1.03l-2.06,1.89-.86-.86-13.93,3.96v-1.03c-3.9,0-8.2-10.26-12.9-30.79l.86-1.03-2.92-6.88c.8,0,1.49-.34,2.06-1.03l-2.06-4.99,1.03-4.13c0-1.03-1.61-1.95-4.82-2.75l-3.1,5.85,1.03,3.96v12.04c2.41,14.45,6.36,24.02,11.87,28.72v1.03c-2.06,0-3.1,.69-3.1,2.06l-.86-1.03c-2.75,.69-4.47,1.03-5.16,1.03l-.69-1.03-7.05,2.06c-6.88,0-12.56-2.69-17.03-8.08h-2.06l-.69,1.03c4.24,9.98,8.54,14.96,12.9,14.96,20.75,0,38.3-2.06,52.63-6.19v-.69l-4.13-5.16v-1.03Z"/><path class="cls-1" d="M829.4,78.66l-1.03-1.03-7.22,3.1c-8.94,1.15-13.42,4.42-13.42,9.8h-1.03l-1.03-8.77c.57-.57,.92-1.26,1.03-2.06-.69-3.78-1.03-6.02-1.03-6.71l1.03-1.03-1.03-3.96v-10.49l-1.03-1.03h1.03c-.69-3.78-1.03-6.02-1.03-6.71l1.03-1.03c-.92-13.42-2.81-20.12-5.68-20.12h-3.96l-1.03,1.03,1.89,12.38-.86,2.75,.86,3.96c-.58,3.9-.86,6.19-.86,6.88l.86,.86-.86,13.59,.86,2.92c-.58,.58-.86,1.26-.86,2.06l.86,.69-.86,1.03v16.51l1.89,1.89-1.89,3.1c0,1.15,.29,3.73,.86,7.74l-.86,2.75,.86,2.92c-.58,.58-.86,1.26-.86,2.06l.86,.69h-.86l1.89,11.7-1.03,1.03v2.06h4.82l1.03-1.03,1.89,6.71h2.06l1.03-4.99c-.12-3.44-.46-6.94-1.03-10.49l1.03-4.99v-8.43l-1.03-1.03,1.03-1.03v-1.89l-1.03-1.03h1.03c-.69-4.47-1.03-7.05-1.03-7.74l1.03-1.03,.69,1.03,16-4.13v1.03c2.06-.69,3.38-1.03,3.96-1.03l1.03,1.03c7.68-.69,11.52-1.95,11.52-3.78,0-3.78-1.26-7.05-3.78-9.8-4.47,1.38-7.05,2.06-7.74,2.06Z"/><path class="cls-1" d="M735.66,98.96h5.16l1.03-1.03c-2.18-11.81-3.9-17.72-5.16-17.72l1.03-1.03c-.8-12.61-3.78-18.92-8.94-18.92l-.86,1.03,.86,6.02c-.58,2.06-.86,3.44-.86,4.13l.86,.69h-.86l.86,3.1-.86,3.96c.57,8.6,1.89,12.9,3.96,12.9l-1.03,1.03c0,2.41,1.6,4.36,4.82,5.85Z"/><path class="cls-1" d="M764.56,52.35l1.03-1.03v1.03l6.02-1.89,1.03,.86,2.06-1.89c-.12-.8-.46-1.49-1.03-2.06h1.03v-1.03l-1.03-1.03c-.92,.12-1.61,.46-2.06,1.03h-9.12c-9.98,0-19.5,1.66-28.55,4.99-14.68,3.56-22.02,5.85-22.02,6.88h1.03l46.78-6.88c2.52,.69,4.13,1.03,4.82,1.03Z"/><path class="cls-1" d="M869.48,18.46l5.16-2.06v1.03l5.16-1.03,3.1,1.03c3.67-1.38,11.58-2.06,23.74-2.06l2.06-2.06c2.06,.46,3.1,2.52,3.1,6.19v2.06l-4.13,10.32c0,.8,.34,1.49,1.03,2.06l-6.19,14.45c0,.8,.34,1.49,1.03,2.06h-1.03l2.06,2.06c-.69,2.75-1.03,4.47-1.03,5.16l1.03,1.03c4.01,0,7.11-2.06,9.29-6.19v-1.03h-2.06l-2.06-6.19c2.06,.69,3.78,1.03,5.16,1.03,1.03-2.75,2.06-4.13,3.1-4.13l-1.03-5.16,1.03-8.26-1.03-1.03,4.13-14.45c0-1.26-1.72-2.29-5.16-3.1-.8,0-1.49,.34-2.06,1.03-.58-.69-1.26-1.03-2.06-1.03l-1.03,1.03-1.03-1.03h-1.03c-26.83,1.15-40.25,3.21-40.25,6.19,0,.8,.34,1.49,1.03,2.06Z"/><polygon class="cls-1" points="915.92 47.36 913.86 47.36 913.86 51.49 915.92 49.42 915.92 47.36"/><path class="cls-1" d="M927.61,143.51l-.86-.69c-1.49-9.63-3.56-17.89-6.19-24.77l-7.74-7.74c-.58,0-1.09,.23-1.55,.69h-.69v-1.55l3.1-.69c.34,.46,.86,.69,1.55,.69v-1.55l-7.74-.69-.86,.69-3.1-.69h-.69l-.86,2.24c-.58,0-1.09-.23-1.55-.69h-4.3c-1.03,0-1.55,.75-1.55,2.24-3.1,0-4.64,.52-4.64,1.55-.69,0-1.2-.23-1.55-.69h-2.41l-.69,.69v-.69c-3.78,.69-6.65,2.24-8.6,4.64h-1.55c0-2.64-1.03-3.96-3.1-3.96-.8,0-1.84,1.84-3.1,5.5l.86,3.1c-.58,1.49-.86,2.52-.86,3.1l.86,.69-.86,3.96,2.41,4.64-.86,3.78c1.6,0,2.41,.8,2.41,2.41h-1.55l1.55,5.33c-.69,0-1.2,1.72-1.55,5.16,.57,.11,1.09,.4,1.55,.86,0,1.49,.75,2.24,2.24,2.24l.86-.69v1.55h-2.41l1.55,6.88,2.41-.69,3.1,.69-.86-3.1,.86-3.1v-3.78l3.78,.69h4.64l.86-.69c0,.57,.23,1.09,.69,1.55l.86-.86c7.57,2.06,11.58,3.1,12.04,3.1v-1.55h.86l6.19,3.1c4.13-.34,6.19-1.09,6.19-2.24l.69,.69c1.6-.46,2.64-.69,3.1-.69,.46,.46,.97,.69,1.55,.69l.86-.69c3.1,.46,4.87,.69,5.33,.69l3.1-4.64v-.69c-2.52-2.06-3.78-4.07-3.78-6.02Zm-23.22-31.65c.57,0,1.09,.23,1.55,.69l-1.55,1.55v-2.24Zm13.93,36.12l-23.05-2.06c-4.13,.34-9.29,.52-15.48,.52-.46-5.5-1.2-8.26-2.24-8.26l.69-.86c-.46-5.16-.69-8.77-.69-10.84l-3.1-4.64c0-1.14,6.71-3.44,20.12-6.88,4.47,0,8.77,.75,12.9,2.24,5.16,7.57,8.77,14.28,10.84,20.12l-1.55,1.55h1.55l-.86,2.41,3.1,5.16-2.24,1.55Z"/><path class="cls-1" d="M944.82,78.32l-2.06-2.06h-1.03c-3.1,3.1-6.88,4.82-11.35,5.16l-3.1-2.06-3.1,3.1-7.22-1.03-25.8,4.13-2.06-2.06v-5.16l2.06-8.26c-.69-12.04-1.72-18.92-3.1-20.64-3.44,1.84-5.16,3.9-5.16,6.19l1.03,1.03c-.8,0-1.49,.34-2.06,1.03l1.03,3.1c-.34,6.19-1.03,9.29-2.06,9.29h-1.03l1.03,3.1v3.1c-.69,.57-1.03,1.26-1.03,2.06l1.03,1.03-2.06,2.06c0,1.38,1.72,2.06,5.16,2.06v1.03c-2.06,0-3.1,.69-3.1,2.06l-30.96-2.06-1.03-1.03-1.03,1.03c0,6.19,7.57,9.29,22.7,9.29l3.1-2.06,4.13,1.03c15.02,0,31.88-2.06,50.57-6.19v1.03c11.01-.92,16.51-2.29,16.51-4.13v-3.1l-1.03-1.03,1.03-1.03Zm-57.79,8.26l-2.06-2.06h3.1c0,.8-.34,1.49-1.03,2.06Z"/></g></g></svg>